<svg width="166" height="28" viewBox="0 0 166 28" fill="none" xmlns="http://www.w3.org/2000/svg">
<path d="M18.9134 11.4567C18.9134 18.0149 12.4367 23.896 10.2032 25.7291C9.76309 26.0903 9.15029 26.0903 8.7102 25.7291C6.47672 23.896 0 18.0149 0 11.4567C0 6.23391 4.23391 2 9.45669 2C14.6795 2 18.9134 6.23391 18.9134 11.4567Z" fill="#FF5222"/>
<path fill-rule="evenodd" clip-rule="evenodd" d="M10.1597 6.09702C10.1258 5.7581 9.84061 5.5 9.5 5.5C9.15939 5.5 8.87419 5.7581 8.8403 6.09702L8.75596 6.94044C8.66069 7.89307 7.543 8.35603 6.80203 7.74978L6.146 7.21303C5.88238 6.99735 5.49821 7.01651 5.25736 7.25736C5.01651 7.49821 4.99735 7.88237 5.21304 8.14599L5.74979 8.80203C6.35604 9.543 5.89307 10.6607 4.94044 10.756L4.09702 10.8403C3.7581 10.8742 3.5 11.1594 3.5 11.5C3.5 11.8406 3.7581 12.1258 4.09702 12.1597L4.94044 12.244C5.89307 12.3393 6.35603 13.457 5.74978 14.198L5.21304 14.854C4.99735 15.1176 5.01651 15.5018 5.25736 15.7426C5.49821 15.9835 5.88238 16.0026 6.146 15.787L6.80203 15.2502C7.543 14.644 8.66069 15.1069 8.75596 16.0596L8.8403 16.903C8.87419 17.2419 9.15939 17.5 9.5 17.5C9.84061 17.5 10.1258 17.2419 10.1597 16.903L10.244 16.0596C10.3393 15.1069 11.457 14.644 12.198 15.2502L12.854 15.787C13.1176 16.0026 13.5018 15.9835 13.7426 15.7426C13.9835 15.5018 14.0027 15.1176 13.787 14.854L13.2502 14.198C12.644 13.457 13.1069 12.3393 14.0596 12.244L14.903 12.1597C15.2419 12.1258 15.5 11.8406 15.5 11.5C15.5 11.1594 15.2419 10.8742 14.903 10.8403L14.0596 10.756C13.1069 10.6607 12.644 9.543 13.2502 8.80203L13.787 8.14599C14.0027 7.88237 13.9835 7.49821 13.7426 7.25736C13.5018 7.01651 13.1176 6.99734 12.854 7.21303L12.198 7.74978C11.457 8.35603 10.3393 7.89307 10.244 6.94044L10.1597 6.09702Z" fill="#FDFDFE"/>
<circle cx="9.5" cy="11.5" r="2" stroke="#FF5222"/>
<path d="M36.2734 22.692C34.7054 22.692 33.2654 22.356 31.9534 21.684C30.6574 21.012 29.6174 20.012 28.8334 18.684C28.0654 17.34 27.6814 15.724 27.6814 13.836C27.6814 11.964 28.0734 10.364 28.8574 9.036C29.6574 7.692 30.7054 6.684 32.0014 6.012C33.2974 5.34 34.7214 5.004 36.2734 5.004C37.6494 5.004 38.8894 5.252 39.9934 5.748C41.1134 6.228 42.0174 6.94 42.7054 7.884C43.4094 8.812 43.8414 9.924 44.0014 11.22H40.5934C40.4174 10.196 39.9294 9.38 39.1294 8.772C38.3294 8.148 37.3694 7.836 36.2494 7.836C35.2574 7.836 34.3614 8.068 33.5614 8.532C32.7614 8.996 32.1294 9.684 31.6654 10.596C31.2014 11.492 30.9694 12.572 30.9694 13.836C30.9694 15.1 31.1934 16.188 31.6414 17.1C32.1054 18.012 32.7374 18.7 33.5374 19.164C34.3374 19.628 35.2414 19.86 36.2494 19.86C37.4014 19.86 38.3614 19.564 39.1294 18.972C39.9134 18.364 40.4014 17.516 40.5934 16.428H44.0254C43.8174 17.788 43.3534 18.94 42.6334 19.884C41.9134 20.812 41.0014 21.516 39.8974 21.996C38.8094 22.46 37.6014 22.692 36.2734 22.692ZM45.6653 5.004H48.6893V11.964C49.1053 11.308 49.6573 10.796 50.3453 10.428C51.0493 10.044 51.8253 9.852 52.6733 9.852C53.5693 9.852 54.3533 10.036 55.0253 10.404C55.7133 10.772 56.2493 11.3 56.6333 11.988C57.0173 12.66 57.2093 13.444 57.2093 14.34V22.5H54.1853V15.06C54.1853 14.308 53.9693 13.7 53.5373 13.236C53.1053 12.772 52.5213 12.54 51.7853 12.54C51.1293 12.54 50.5693 12.716 50.1053 13.068C49.6413 13.42 49.2893 13.94 49.0493 14.628C48.8093 15.3 48.6893 16.108 48.6893 17.052V22.5H45.6653V5.004ZM63.1838 22.692C62.3518 22.692 61.6078 22.54 60.9518 22.236C60.2958 21.932 59.7758 21.508 59.3918 20.964C59.0238 20.404 58.8398 19.78 58.8398 19.092C58.8398 18.004 59.2158 17.132 59.9678 16.476C60.7198 15.804 61.7918 15.38 63.1838 15.204L65.6798 14.868C65.9998 14.82 66.2478 14.716 66.4238 14.556C66.5998 14.38 66.6878 14.156 66.6878 13.884C66.6878 13.404 66.4718 13.004 66.0398 12.684C65.6078 12.364 65.0398 12.204 64.3358 12.204C63.6318 12.204 63.0478 12.38 62.5838 12.732C62.1358 13.084 61.8878 13.572 61.8398 14.196H58.9118C59.0078 13.316 59.2878 12.548 59.7518 11.892C60.2158 11.236 60.8318 10.732 61.5998 10.38C62.3838 10.028 63.2958 9.852 64.3358 9.852C65.4238 9.852 66.3678 10.052 67.1678 10.452C67.9838 10.836 68.6078 11.396 69.0398 12.132C69.4878 12.852 69.7118 13.7 69.7118 14.676V19.068C69.7118 19.42 69.7758 19.676 69.9038 19.836C70.0318 19.996 70.2318 20.076 70.5038 20.076C70.6158 20.076 70.7438 20.06 70.8878 20.028V22.5C70.3758 22.596 69.8958 22.644 69.4478 22.644C68.7918 22.644 68.2478 22.492 67.8158 22.188C67.3998 21.884 67.1518 21.444 67.0718 20.868C66.7998 21.428 66.3118 21.876 65.6078 22.212C64.9198 22.532 64.1118 22.692 63.1838 22.692ZM63.6878 20.388C64.6478 20.388 65.3998 20.084 65.9438 19.476C66.4878 18.868 66.7598 18.084 66.7598 17.124V16.764L63.6878 17.268C63.0798 17.364 62.6238 17.556 62.3198 17.844C62.0158 18.116 61.8638 18.484 61.8638 18.948C61.8638 19.38 62.0318 19.732 62.3678 20.004C62.7038 20.26 63.1438 20.388 63.6878 20.388ZM72.2321 10.044H75.2561V11.508C75.5921 11.012 76.0881 10.612 76.7441 10.308C77.4161 10.004 78.1521 9.852 78.9521 9.852C80.1201 9.852 81.1441 10.124 82.0241 10.668C82.9041 11.196 83.5841 11.948 84.0641 12.924C84.5441 13.884 84.7841 14.996 84.7841 16.26C84.7841 17.524 84.5281 18.644 84.0161 19.62C83.5201 20.58 82.8161 21.332 81.9041 21.876C80.9921 22.42 79.9361 22.692 78.7361 22.692C78.0001 22.692 77.3201 22.564 76.6961 22.308C76.0881 22.036 75.6081 21.676 75.2561 21.228V26.988H72.2321V10.044ZM78.4001 20.076C79.0401 20.076 79.6081 19.924 80.1041 19.62C80.6161 19.3 81.0081 18.852 81.2801 18.276C81.5521 17.7 81.6881 17.028 81.6881 16.26C81.6881 15.508 81.5521 14.844 81.2801 14.268C81.0081 13.692 80.6161 13.252 80.1041 12.948C79.6081 12.628 79.0321 12.468 78.3761 12.468C77.7361 12.468 77.1601 12.628 76.6481 12.948C76.1361 13.252 75.7441 13.692 75.4721 14.268C75.2001 14.844 75.0641 15.508 75.0641 16.26C75.0641 17.028 75.2001 17.7 75.4721 18.276C75.7441 18.852 76.1281 19.3 76.6241 19.62C77.1361 19.924 77.7281 20.076 78.4001 20.076ZM91.6884 22.692C90.3444 22.692 89.2724 22.34 88.4724 21.636C87.6884 20.932 87.2964 19.908 87.2964 18.564V12.564H85.1844V10.044H87.2964V6.372H90.3204V10.044H93.2244V12.564H90.3204V18.252C90.3204 18.828 90.4804 19.276 90.8004 19.596C91.1204 19.916 91.5364 20.076 92.0484 20.076C92.2564 20.076 92.4564 20.06 92.6484 20.028C92.8564 19.996 93.0484 19.956 93.2244 19.908V22.524C92.7764 22.636 92.2644 22.692 91.6884 22.692ZM96.7899 16.212C96.7899 17.444 97.0939 18.412 97.7019 19.116C98.3099 19.804 99.1339 20.148 100.174 20.148C100.878 20.148 101.47 19.996 101.95 19.692C102.446 19.388 102.766 18.964 102.91 18.42H105.91C105.766 19.3 105.43 20.068 104.902 20.724C104.374 21.364 103.694 21.852 102.862 22.188C102.046 22.524 101.126 22.692 100.102 22.692C98.7899 22.692 97.6619 22.388 96.7179 21.78C95.7739 21.172 95.0619 20.38 94.5819 19.404C94.1019 18.428 93.8619 17.38 93.8619 16.26C93.8619 15.14 94.0859 14.092 94.5339 13.116C94.9979 12.14 95.6859 11.356 96.5979 10.764C97.5099 10.156 98.6219 9.852 99.9339 9.852C101.23 9.852 102.334 10.14 103.246 10.716C104.158 11.292 104.838 12.044 105.286 12.972C105.75 13.9 105.982 14.884 105.982 15.924C105.982 16.292 105.966 16.66 105.934 17.028H95.6139V14.748H102.718C102.67 14.252 102.534 13.812 102.31 13.428C102.086 13.028 101.766 12.716 101.35 12.492C100.95 12.268 100.478 12.156 99.9339 12.156C99.2779 12.156 98.7099 12.316 98.2299 12.636C97.7659 12.956 97.4059 13.42 97.1499 14.028C96.9099 14.636 96.7899 15.364 96.7899 16.212ZM115.378 12.804C114.994 12.708 114.594 12.66 114.178 12.66C113.554 12.66 112.986 12.844 112.474 13.212C111.978 13.58 111.57 14.164 111.25 14.964C110.946 15.748 110.794 16.732 110.794 17.916V22.5H107.77V10.044H110.794V12.324C111.066 11.62 111.562 11.036 112.282 10.572C113.018 10.092 113.77 9.852 114.538 9.852C114.89 9.852 115.17 9.876 115.378 9.924V12.804ZM107.77 19.98H110.794V22.5H107.77V19.98ZM107.77 10.044H109.066V12.564H107.77V10.044ZM128.997 22.692C127.333 22.692 125.837 22.308 124.509 21.54C123.181 20.772 122.133 19.716 121.365 18.372C120.613 17.028 120.237 15.516 120.237 13.836C120.237 12.172 120.613 10.668 121.365 9.324C122.133 7.98 123.181 6.924 124.509 6.156C125.853 5.388 127.349 5.004 128.997 5.004C130.645 5.004 132.133 5.388 133.461 6.156C134.789 6.908 135.829 7.956 136.581 9.3C137.333 10.644 137.709 12.156 137.709 13.836C137.709 15.516 137.333 17.028 136.581 18.372C135.829 19.716 134.789 20.772 133.461 21.54C132.133 22.308 130.645 22.692 128.997 22.692ZM128.997 19.86C130.037 19.86 130.965 19.604 131.781 19.092C132.613 18.564 133.261 17.844 133.725 16.932C134.189 16.004 134.421 14.972 134.421 13.836C134.421 12.7 134.189 11.676 133.725 10.764C133.261 9.836 132.613 9.116 131.781 8.604C130.965 8.092 130.037 7.836 128.997 7.836C127.941 7.836 126.997 8.092 126.165 8.604C125.333 9.116 124.685 9.836 124.221 10.764C123.757 11.676 123.525 12.7 123.525 13.836C123.525 14.972 123.757 16.004 124.221 16.932C124.685 17.844 125.333 18.564 126.165 19.092C126.997 19.604 127.941 19.86 128.997 19.86ZM139.417 10.044H142.441V11.964C142.857 11.308 143.409 10.796 144.097 10.428C144.801 10.044 145.577 9.852 146.425 9.852C147.305 9.852 148.089 10.036 148.777 10.404C149.465 10.772 149.993 11.3 150.361 11.988C150.745 12.66 150.937 13.444 150.937 14.34V22.5H147.937V15.036C147.937 14.3 147.713 13.7 147.265 13.236C146.833 12.772 146.257 12.54 145.537 12.54C144.881 12.54 144.321 12.716 143.857 13.068C143.393 13.42 143.041 13.932 142.801 14.604C142.561 15.276 142.441 16.084 142.441 17.028V22.5H139.417V10.044ZM155.496 16.212C155.496 17.444 155.8 18.412 156.408 19.116C157.016 19.804 157.84 20.148 158.88 20.148C159.584 20.148 160.176 19.996 160.656 19.692C161.152 19.388 161.472 18.964 161.616 18.42H164.616C164.472 19.3 164.136 20.068 163.608 20.724C163.08 21.364 162.4 21.852 161.568 22.188C160.752 22.524 159.832 22.692 158.808 22.692C157.496 22.692 156.368 22.388 155.424 21.78C154.48 21.172 153.768 20.38 153.288 19.404C152.808 18.428 152.568 17.38 152.568 16.26C152.568 15.14 152.792 14.092 153.24 13.116C153.704 12.14 154.392 11.356 155.304 10.764C156.216 10.156 157.328 9.852 158.64 9.852C159.936 9.852 161.04 10.14 161.952 10.716C162.864 11.292 163.544 12.044 163.992 12.972C164.456 13.9 164.688 14.884 164.688 15.924C164.688 16.292 164.672 16.66 164.64 17.028H154.32V14.748H161.424C161.376 14.252 161.24 13.812 161.016 13.428C160.792 13.028 160.472 12.716 160.056 12.492C159.656 12.268 159.184 12.156 158.64 12.156C157.984 12.156 157.416 12.316 156.936 12.636C156.472 12.956 156.112 13.42 155.856 14.028C155.616 14.636 155.496 15.364 155.496 16.212Z" fill="#2B201F"/>
</svg>
